<svg width="1542pt" height="541pt" viewBox="0.00 0.00 1542.00 541.00" xmlns="http://www.w3.org/2000/svg" xmlns:xlink="http://www.w3.org/1999/xlink">
<g id="graph1" class="graph" transform="scale(1 1) rotate(0) translate(4 537)">
<title>g</title>
<polygon fill="white" stroke="white" points="-4,5 -4,-537 1539,-537 1539,5 -4,5"></polygon>
<!-- getFramebuffers -->
<g id="node1" class="node"><title>getFramebuffers</title>
<polygon fill="none" stroke="black" points="0.2345,-367 0.2345,-483 351.765,-483 351.765,-367 0.2345,-367"></polygon>
<text text-anchor="middle" x="176" y="-466.4" font-family="Times,serif" font-size="14.00">Window.getFramebuffers</text>
<polyline fill="none" stroke="black" points="0.2345,-458.2 351.765,-458.2 "></polyline>
<text text-anchor="middle" x="176" y="-441.6" font-family="Times,serif" font-size="14.00">Gets framebuffers logically set up to display to this window</text>
<text text-anchor="middle" x="176" y="-424.8" font-family="Times,serif" font-size="14.00">(same color depth, resolution, etc.)</text>
<polyline fill="none" stroke="black" points="0.2345,-416.6 351.765,-416.6 "></polyline>
<text text-anchor="middle" x="38.7878" y="-387.6" font-family="Times,serif" font-size="14.00">N</text>
<polyline fill="none" stroke="black" points="77.3411,-367 77.3411,-416.6 "></polyline>
<text text-anchor="middle" x="175.666" y="-400" font-family="Times,serif" font-size="14.00">ImageSet framebuffers</text>
<polyline fill="none" stroke="black" points="77.3411,-391.8 273.991,-391.8 "></polyline>
<text text-anchor="middle" x="175.666" y="-375.2" font-family="Times,serif" font-size="14.00">Main framebuffers</text>
<polyline fill="none" stroke="black" points="273.991,-367 273.991,-416.6 "></polyline>
<text text-anchor="middle" x="312.545" y="-387.6" font-family="Times,serif" font-size="14.00">O</text>
</g>
<!-- clear -->
<g id="node2" class="node"><title>clear</title>
<polygon fill="none" stroke="black" points="387.894,-367.4 387.894,-466.6 618.106,-466.6 618.106,-367.4 387.894,-367.4"></polygon>
<text text-anchor="middle" x="503" y="-450" font-family="Times,serif" font-size="14.00">ClearScreen.clear</text>
<polyline fill="none" stroke="black" points="387.894,-441.8 618.106,-441.8 "></polyline>
<text text-anchor="middle" x="503" y="-425.2" font-family="Times,serif" font-size="14.00">Clears the ImageSet to a known color.</text>
<polyline fill="none" stroke="black" points="387.894,-417 618.106,-417 "></polyline>
<text text-anchor="middle" x="400.224" y="-388" font-family="Times,serif" font-size="14.00">I</text>
<polyline fill="none" stroke="black" points="412.554,-367.4 412.554,-417 "></polyline>
<text text-anchor="middle" x="499.629" y="-400.4" font-family="Times,serif" font-size="14.00">ImageSet image</text>
<polyline fill="none" stroke="black" points="412.554,-392.2 586.704,-392.2 "></polyline>
<text text-anchor="middle" x="499.629" y="-375.6" font-family="Times,serif" font-size="14.00">The ImageSet to be cleared</text>
<polyline fill="none" stroke="black" points="586.704,-367.4 586.704,-417 "></polyline>
<text text-anchor="middle" x="602.258" y="-388" font-family="Times,serif" font-size="14.00">O</text>
</g>
<!-- getFramebuffers&#45;&gt;clear -->
<g id="edge10" class="edge"><title>getFramebuffers:f1-&gt;clear:f1</title>
<path fill="none" stroke="black" d="M352,-392C364,-392 369.25,-392 377.875,-392"></path>
<polygon fill="black" stroke="black" points="378,-395.5 388,-392 378,-388.5 378,-395.5"></polygon>
</g>
<!-- fullscreen -->
<g id="node3" class="node"><title>fullscreen</title>
<polygon fill="none" stroke="black" points="669.344,-367.2 669.344,-532.8 916.656,-532.8 916.656,-367.2 669.344,-367.2"></polygon>
<text text-anchor="middle" x="793" y="-516.2" font-family="Times,serif" font-size="14.00">Quad.fullScreen</text>
<polyline fill="none" stroke="black" points="669.344,-508 916.656,-508 "></polyline>
<text text-anchor="middle" x="793" y="-491.4" font-family="Times,serif" font-size="14.00">Displays a texture to the entire ImageSet.</text>
<text text-anchor="middle" x="793" y="-474.6" font-family="Times,serif" font-size="14.00">Useful for full-screen backgrounds.</text>
<polyline fill="none" stroke="black" points="669.344,-466.4 916.656,-466.4 "></polyline>
<text text-anchor="middle" x="687.674" y="-437.4" font-family="Times,serif" font-size="14.00">I</text>
<polyline fill="none" stroke="black" points="706.005,-416.8 706.005,-466.4 "></polyline>
<text text-anchor="middle" x="789.651" y="-449.8" font-family="Times,serif" font-size="14.00">Texture texture</text>
<polyline fill="none" stroke="black" points="706.005,-441.6 873.298,-441.6 "></polyline>
<text text-anchor="middle" x="789.651" y="-425" font-family="Times,serif" font-size="14.00">Texture to be displayed.</text>
<polyline fill="none" stroke="black" points="873.298,-416.8 873.298,-466.4 "></polyline>
<text text-anchor="middle" x="894.851" y="-437.4" font-family="Times,serif" font-size="14.00">D</text>
<polyline fill="none" stroke="black" points="669.344,-416.8 916.656,-416.8 "></polyline>
<text text-anchor="middle" x="684.674" y="-387.8" font-family="Times,serif" font-size="14.00">I</text>
<polyline fill="none" stroke="black" points="700.005,-367.2 700.005,-416.8 "></polyline>
<text text-anchor="middle" x="789.594" y="-400.2" font-family="Times,serif" font-size="14.00">ImageSet output</text>
<polyline fill="none" stroke="black" points="700.005,-392 879.184,-392 "></polyline>
<text text-anchor="middle" x="789.594" y="-375.4" font-family="Times,serif" font-size="14.00">The ImageSet to write onto</text>
<polyline fill="none" stroke="black" points="879.184,-367.2 879.184,-416.8 "></polyline>
<text text-anchor="middle" x="897.737" y="-387.8" font-family="Times,serif" font-size="14.00">O</text>
</g>
<!-- clear&#45;&gt;fullscreen -->
<g id="edge12" class="edge"><title>clear:f2-&gt;fullscreen:f2</title>
<path fill="none" stroke="black" d="M618,-392C636.403,-392 643.376,-392 657.849,-392"></path>
<polygon fill="black" stroke="black" points="658,-395.5 668,-392 658,-388.5 658,-395.5"></polygon>
</g>
<!-- combine -->
<g id="node5" class="node"><title>combine</title>
<polygon fill="none" stroke="black" points="968.412,-41.8 968.412,-356.2 1263.59,-356.2 1263.59,-41.8 968.412,-41.8"></polygon>
<text text-anchor="middle" x="1116" y="-339.6" font-family="Times,serif" font-size="14.00">GBuffer.combine</text>
<polyline fill="none" stroke="black" points="968.412,-331.4 1263.59,-331.4 "></polyline>
<text text-anchor="middle" x="1116" y="-314.8" font-family="Times,serif" font-size="14.00">Combine GBuffer textures into a single lit output.</text>
<polyline fill="none" stroke="black" points="968.412,-306.6 1263.59,-306.6 "></polyline>
<text text-anchor="middle" x="993.242" y="-269.2" font-family="Times,serif" font-size="14.00">I</text>
<polyline fill="none" stroke="black" points="1018.07,-240.2 1018.07,-306.6 "></polyline>
<text text-anchor="middle" x="1113.08" y="-290" font-family="Times,serif" font-size="14.00">ImageSet output</text>
<polyline fill="none" stroke="black" points="1018.07,-281.8 1208.08,-281.8 "></polyline>
<text text-anchor="middle" x="1113.08" y="-265.2" font-family="Times,serif" font-size="14.00">The output texture.</text>
<text text-anchor="middle" x="1113.08" y="-248.4" font-family="Times,serif" font-size="14.00">Created if none passed in.</text>
<polyline fill="none" stroke="black" points="1208.08,-240.2 1208.08,-306.6 "></polyline>
<text text-anchor="middle" x="1235.63" y="-269.2" font-family="Times,serif" font-size="14.00">O</text>
<polyline fill="none" stroke="black" points="968.412,-240.2 1263.59,-240.2 "></polyline>
<text text-anchor="middle" x="992.242" y="-211.2" font-family="Times,serif" font-size="14.00">I</text>
<polyline fill="none" stroke="black" points="1016.07,-190.6 1016.07,-240.2 "></polyline>
<text text-anchor="middle" x="1112.34" y="-223.6" font-family="Times,serif" font-size="14.00">ImageSet position</text>
<polyline fill="none" stroke="black" points="1016.07,-215.4 1208.61,-215.4 "></polyline>
<text text-anchor="middle" x="1112.34" y="-198.8" font-family="Times,serif" font-size="14.00">The position texture input.</text>
<polyline fill="none" stroke="black" points="1208.61,-190.6 1208.61,-240.2 "></polyline>
<text text-anchor="middle" x="1235.66" y="-211.2" font-family="Times,serif" font-size="14.00">D</text>
<polyline fill="none" stroke="black" points="968.412,-190.6 1263.59,-190.6 "></polyline>
<text text-anchor="middle" x="993.242" y="-161.6" font-family="Times,serif" font-size="14.00">I</text>
<polyline fill="none" stroke="black" points="1018.07,-141 1018.07,-190.6 "></polyline>
<text text-anchor="middle" x="1112.61" y="-174" font-family="Times,serif" font-size="14.00">ImageSet normal</text>
<polyline fill="none" stroke="black" points="1018.07,-165.8 1207.15,-165.8 "></polyline>
<text text-anchor="middle" x="1112.61" y="-149.2" font-family="Times,serif" font-size="14.00">The normal texture input.</text>
<polyline fill="none" stroke="black" points="1207.15,-141 1207.15,-190.6 "></polyline>
<text text-anchor="middle" x="1235.2" y="-161.6" font-family="Times,serif" font-size="14.00">D</text>
<polyline fill="none" stroke="black" points="968.412,-141 1263.59,-141 "></polyline>
<text text-anchor="middle" x="993.742" y="-112" font-family="Times,serif" font-size="14.00">I</text>
<polyline fill="none" stroke="black" points="1019.07,-91.4 1019.07,-141 "></polyline>
<text text-anchor="middle" x="1112.94" y="-124.4" font-family="Times,serif" font-size="14.00">ImageSet albedo</text>
<polyline fill="none" stroke="black" points="1019.07,-116.2 1206.81,-116.2 "></polyline>
<text text-anchor="middle" x="1112.94" y="-99.6" font-family="Times,serif" font-size="14.00">The albedo texture input.</text>
<polyline fill="none" stroke="black" points="1206.81,-91.4 1206.81,-141 "></polyline>
<text text-anchor="middle" x="1234.86" y="-112" font-family="Times,serif" font-size="14.00">D</text>
<polyline fill="none" stroke="black" points="968.412,-91.4 1263.59,-91.4 "></polyline>
<text text-anchor="middle" x="992.742" y="-62.4" font-family="Times,serif" font-size="14.00">I</text>
<polyline fill="none" stroke="black" points="1017.07,-41.8 1017.07,-91.4 "></polyline>
<text text-anchor="middle" x="1112.85" y="-74.8" font-family="Times,serif" font-size="14.00">ImageSet specular</text>
<polyline fill="none" stroke="black" points="1017.07,-66.6 1208.63,-66.6 "></polyline>
<text text-anchor="middle" x="1112.85" y="-50" font-family="Times,serif" font-size="14.00">The specular texture input</text>
<polyline fill="none" stroke="black" points="1208.63,-41.8 1208.63,-91.4 "></polyline>
<text text-anchor="middle" x="1235.68" y="-62.4" font-family="Times,serif" font-size="14.00">D</text>
</g>
<!-- fullscreen&#45;&gt;combine -->
<g id="edge14" class="edge"><title>fullscreen:f3-&gt;combine:f1</title>
<path fill="none" stroke="black" d="M898,-366C898,-350.368 920.169,-367.217 932,-357 959.619,-333.148 933.883,-284.351 957.827,-274.685"></path>
<polygon fill="black" stroke="black" points="958.706,-278.087 968,-273 957.562,-271.181 958.706,-278.087"></polygon>
</g>
<!-- display -->
<g id="node4" class="node"><title>display</title>
<polygon fill="none" stroke="black" points="1300.67,-248.4 1300.67,-347.6 1533.33,-347.6 1533.33,-248.4 1300.67,-248.4"></polygon>
<text text-anchor="middle" x="1417" y="-331" font-family="Times,serif" font-size="14.00">Window.display</text>
<polyline fill="none" stroke="black" points="1300.67,-322.8 1533.33,-322.8 "></polyline>
<text text-anchor="middle" x="1417" y="-306.2" font-family="Times,serif" font-size="14.00">Displays to the window.</text>
<polyline fill="none" stroke="black" points="1300.67,-298 1533.33,-298 "></polyline>
<text text-anchor="middle" x="1311" y="-269" font-family="Times,serif" font-size="14.00">I</text>
<polyline fill="none" stroke="black" points="1321.33,-248.4 1321.33,-298 "></polyline>
<text text-anchor="middle" x="1414.28" y="-281.4" font-family="Times,serif" font-size="14.00">ImageSet displayed</text>
<polyline fill="none" stroke="black" points="1321.33,-273.2 1507.22,-273.2 "></polyline>
<text text-anchor="middle" x="1414.28" y="-256.6" font-family="Times,serif" font-size="14.00">The ImageSet to be displayed.</text>
<polyline fill="none" stroke="black" points="1507.22,-248.4 1507.22,-298 "></polyline>
<text text-anchor="middle" x="1520.28" y="-269" font-family="Times,serif" font-size="14.00">D</text>
</g>
<!-- combine&#45;&gt;display -->
<g id="edge16" class="edge"><title>combine:f6-&gt;display:f1</title>
<path fill="none" stroke="black" d="M1264,-273C1276,-273 1281.25,-273 1289.88,-273"></path>
<polygon fill="black" stroke="black" points="1290,-276.5 1300,-273 1290,-269.5 1290,-276.5"></polygon>
</g>
<!-- modelsG -->
<g id="node6" class="node"><title>modelsG</title>
<polygon fill="none" stroke="black" points="653.992,0.4 653.992,-348.4 932.008,-348.4 932.008,0.4 653.992,0.4"></polygon>
<text text-anchor="middle" x="793" y="-331.8" font-family="Times,serif" font-size="14.00">GBuffer.drawModels</text>
<polyline fill="none" stroke="black" points="653.992,-323.6 932.008,-323.6 "></polyline>
<text text-anchor="middle" x="793" y="-307" font-family="Times,serif" font-size="14.00">Draws a set of 3d models into a GBuffer. Each</text>
<text text-anchor="middle" x="793" y="-290.2" font-family="Times,serif" font-size="14.00">element of the GBuffer can be (optionally)</text>
<text text-anchor="middle" x="793" y="-273.4" font-family="Times,serif" font-size="14.00">modified then combined to get a lit scene.</text>
<polyline fill="none" stroke="black" points="653.992,-265.2 932.008,-265.2 "></polyline>
<text text-anchor="middle" x="673.653" y="-227.8" font-family="Times,serif" font-size="14.00">N?</text>
<polyline fill="none" stroke="black" points="693.313,-198.8 693.313,-265.2 "></polyline>
<text text-anchor="middle" x="795.321" y="-248.6" font-family="Times,serif" font-size="14.00">ImageSet position</text>
<polyline fill="none" stroke="black" points="693.313,-240.4 897.328,-240.4 "></polyline>
<text text-anchor="middle" x="795.321" y="-223.8" font-family="Times,serif" font-size="14.00">The position texture for writing.</text>
<text text-anchor="middle" x="795.321" y="-207" font-family="Times,serif" font-size="14.00">Created if none is passed in.</text>
<polyline fill="none" stroke="black" points="897.328,-198.8 897.328,-265.2 "></polyline>
<text text-anchor="middle" x="914.382" y="-227.8" font-family="Times,serif" font-size="14.00">O</text>
<polyline fill="none" stroke="black" points="653.992,-198.8 932.008,-198.8 "></polyline>
<text text-anchor="middle" x="672.545" y="-161.4" font-family="Times,serif" font-size="14.00">N</text>
<polyline fill="none" stroke="black" points="691.099,-132.4 691.099,-198.8 "></polyline>
<text text-anchor="middle" x="792.376" y="-182.2" font-family="Times,serif" font-size="14.00">ImageSet normal</text>
<polyline fill="none" stroke="black" points="691.099,-174 893.654,-174 "></polyline>
<text text-anchor="middle" x="792.376" y="-157.4" font-family="Times,serif" font-size="14.00">The normal texture for writing.</text>
<text text-anchor="middle" x="792.376" y="-140.6" font-family="Times,serif" font-size="14.00">Created if none is passed in.</text>
<polyline fill="none" stroke="black" points="893.654,-132.4 893.654,-198.8 "></polyline>
<text text-anchor="middle" x="912.707" y="-161.4" font-family="Times,serif" font-size="14.00">O</text>
<polyline fill="none" stroke="black" points="653.992,-132.4 932.008,-132.4 "></polyline>
<text text-anchor="middle" x="673.045" y="-95" font-family="Times,serif" font-size="14.00">N</text>
<polyline fill="none" stroke="black" points="692.099,-66 692.099,-132.4 "></polyline>
<text text-anchor="middle" x="792.708" y="-115.8" font-family="Times,serif" font-size="14.00">ImageSet albedo</text>
<polyline fill="none" stroke="black" points="692.099,-107.6 893.317,-107.6 "></polyline>
<text text-anchor="middle" x="792.708" y="-91" font-family="Times,serif" font-size="14.00">The albedo texture for writing.</text>
<text text-anchor="middle" x="792.708" y="-74.2" font-family="Times,serif" font-size="14.00">Created if none is passed in.</text>
<polyline fill="none" stroke="black" points="893.317,-66 893.317,-132.4 "></polyline>
<text text-anchor="middle" x="912.37" y="-95" font-family="Times,serif" font-size="14.00">O</text>
<polyline fill="none" stroke="black" points="653.992,-66 932.008,-66 "></polyline>
<text text-anchor="middle" x="671.545" y="-28.6" font-family="Times,serif" font-size="14.00">N</text>
<polyline fill="none" stroke="black" points="689.099,0.4 689.099,-66 "></polyline>
<text text-anchor="middle" x="792.368" y="-49.4" font-family="Times,serif" font-size="14.00">ImageSet specular</text>
<polyline fill="none" stroke="black" points="689.099,-41.2 895.637,-41.2 "></polyline>
<text text-anchor="middle" x="792.368" y="-24.6" font-family="Times,serif" font-size="14.00">The specular texture for writing.</text>
<text text-anchor="middle" x="792.368" y="-7.8" font-family="Times,serif" font-size="14.00">Created if none is passed in.</text>
<polyline fill="none" stroke="black" points="895.637,0.4 895.637,-66 "></polyline>
<text text-anchor="middle" x="913.69" y="-28.6" font-family="Times,serif" font-size="14.00">O</text>
</g>
<!-- modelsG&#45;&gt;combine -->
<g id="edge2" class="edge"><title>modelsG:f1-&gt;combine:f2</title>
<path fill="none" stroke="black" d="M932,-232C945.685,-232 949.152,-221.831 958.207,-217.222"></path>
<polygon fill="black" stroke="black" points="959.023,-220.626 968,-215 957.473,-213.8 959.023,-220.626"></polygon>
</g>
<!-- modelsG&#45;&gt;combine -->
<g id="edge4" class="edge"><title>modelsG:f2-&gt;combine:f3</title>
<path fill="none" stroke="black" d="M932,-166C944,-166 949.25,-166 957.875,-166"></path>
<polygon fill="black" stroke="black" points="958,-169.5 968,-166 958,-162.5 958,-169.5"></polygon>
</g>
<!-- modelsG&#45;&gt;combine -->
<g id="edge6" class="edge"><title>modelsG:f3-&gt;combine:f4</title>
<path fill="none" stroke="black" d="M932,-99C945.685,-99 949.152,-109.169 958.207,-113.778"></path>
<polygon fill="black" stroke="black" points="957.473,-117.2 968,-116 959.023,-110.374 957.473,-117.2"></polygon>
</g>
<!-- modelsG&#45;&gt;combine -->
<g id="edge8" class="edge"><title>modelsG:f4-&gt;combine:f5</title>
<path fill="none" stroke="black" d="M932,-33C949.881,-33 947.943,-55.4453 958.391,-63.8623"></path>
<polygon fill="black" stroke="black" points="957.408,-67.2229 968,-67 959.58,-60.5687 957.408,-67.2229"></polygon>
</g>
</g>
</svg>